<?xml version="1.0" encoding="utf-8"?>
<!-- Svg Vector Icons : http://www.sfont.cn -->
<!DOCTYPE svg PUBLIC "-//W3C//DTD SVG 1.1//EN" "http://www.w3.org/Graphics/SVG/1.1/DTD/svg11.dtd">
<svg version="1.1" xmlns="http://www.w3.org/2000/svg" xmlns:xlink="http://www.w3.org/1999/xlink" x="0px" y="0px" viewBox="0 0 1000 1000" enable-background="new 0 0 1000 1000" xml:space="preserve">
<metadata> Svg Vector Icons : http://www.sfont.cn </metadata>
<g><g><path d="M934.1,277.6H564.6L930.7,222c18.6-2.8,31.5-20.3,28.7-38.9L937.5,39c-2.5-16.6-17-29-33.8-29c-1.7,0-3.5,0.1-5.2,0.4L60.7,137.6c-9,1.4-17,6.2-22.4,13.5c-5.4,7.4-7.6,16.4-6.3,25.4l20.4,134.6c0,0.2,0,0.4,0,0.6v644c0,18.8,15.3,34.2,34.2,34.2h847.5c18.8,0,34.2-15.3,34.2-34.2v-644C968.3,293,953,277.6,934.1,277.6z M798.3,98l74-11.2l10.6,70l-129.3,19.6L798.3,98z M580.5,131.1l92.9-14.1l-44.7,78.4l-92.9,14.1L580.5,131.1z M108.5,202.8l129.3-19.6l-44.7,78.4l-74,11.2L108.5,202.8z M199,432h-74.9v-70.8h130.8L199,432z M362.7,164.2l92.9-14.1L411,228.5L318,242.6L362.7,164.2z M475.2,361.2L419.3,432h-94l55.9-70.8H475.2z M500,884.2c-98.9,0-179-80.1-179-179c0-98.9,80.1-179,179-179s179,80.1,179,179C679,804,598.9,884.2,500,884.2z M639.6,432h-94l55.9-70.8h94L639.6,432z M896.7,432H765.9l55.9-70.8h74.9V432z"/><path d="M585.7,690.8l-106.8-73.5c-5.3-3.7-12.3-4.1-18-1.1c-5.7,3-9.3,9-9.3,15.4v146.9c0,6.5,3.6,12.4,9.3,15.4c2.6,1.3,5.3,2,8.1,2c3.5,0,6.9-1,9.9-3.1l106.8-73.5c4.7-3.3,7.6-8.6,7.6-14.4C593.2,699.4,590.4,694.1,585.7,690.8z"/></g><g></g><g></g><g></g><g></g><g></g><g></g><g></g><g></g><g></g><g></g><g></g><g></g><g></g><g></g><g></g></g>
</svg>